<svg xmlns="http://www.w3.org/2000/svg" viewBox="0 0 32 32">
  <defs>
    <linearGradient id="blueGradient" x1="0%" y1="0%" x2="100%" y2="100%">
      <stop offset="0%" style="stop-color:#017aff;stop-opacity:1" />
      <stop offset="100%" style="stop-color:#0037bb;stop-opacity:1" />
    </linearGradient>
  </defs>
  <rect width="32" height="32" rx="8" fill="url(#blueGradient)"/>
  <path d="M9 11C9 10.4477 9.44772 10 10 10H22C22.5523 10 23 10.4477 23 11V22C23 22.5523 22.5523 23 22 23H10C9.44772 23 9 22.5523 9 22V11Z" fill="white" fill-opacity="0.2"/>
  <path d="M11 8V10M21 8V10" stroke="white" stroke-width="1.5" stroke-linecap="round"/>
  <path d="M16 14.5C14.3431 14.5 13 15.8431 13 17.5C13 19.1569 14.3431 20.5 16 20.5C17.6569 20.5 19 19.1569 19 17.5" stroke="white" stroke-width="2" stroke-linecap="round"/>
  <path d="M18 15L19.5 14L20.5 15.5" stroke="white" stroke-width="2" stroke-linecap="round" stroke-linejoin="round"/>
  <rect x="9" y="10" width="14" height="2" fill="white" fill-opacity="0.4"/>
</svg>
